<?xml version="1.0" encoding="UTF-8"?>
<svg id="a" data-name="Layer 1" xmlns="http://www.w3.org/2000/svg" viewBox="0 0 318.1 318.1">
  <defs>
    <style>
      .b {
        fill: #121212;
      }

      .b, .c {
        stroke-width: 0px;
      }

      .c {
        fill: #4178f2;
      }
    </style>
  </defs>
  <path class="c" d="M226.97,203.09c12.11-12.11,11.41-32.27-2.1-43.45-11.78-9.75-29.24-8.29-40.05,2.52l-11.33,11.33h0s-11.94,11.94-11.94,11.94c-13.69,13.69-31.67,20.53-49.65,20.53s-35.96-6.84-49.65-20.53c-27.37-27.38-27.37-71.92,0-99.3l11.94-11.94c21.59-21.59,6.3-58.51-24.24-58.51h0c-18.93,0-34.27,15.35-34.27,34.27v218.19c0,18.93,15.35,34.27,34.27,34.27h63.49c9.09,0,17.81-3.61,24.24-10.04l89.29-89.29Z"/>
  <path class="b" d="M204.65,15.68c-9.09,0-17.81,3.61-24.24,10.04l-89.29,89.29c-11.45,11.45-11.45,30.09,0,41.54,11.45,11.45,30.09,11.45,41.54,0l11.94-11.94h0s10.89-10.89,10.89-10.89c27.02-27.01,71.02-28.73,98.82-2.53,28.89,27.23,29.4,72.9,1.52,100.78l-11.94,11.94c-21.59,21.59-6.3,58.51,24.24,58.51h0c18.93,0,34.28-15.35,34.28-34.28V49.96c0-18.93-15.35-34.27-34.27-34.27h-63.49Z"/>
</svg>