<?xml version="1.0" encoding="UTF-8"?>
<svg xmlns="http://www.w3.org/2000/svg" xmlns:xlink="http://www.w3.org/1999/xlink" viewBox="0 0 2019.73 1080">
  <defs>
    <style>
      .y {
        fill: url(#w);
      }

      .y, .z, .aa, .ab, .ac, .ad, .ae, .af, .ag, .ah, .ai, .aj, .ak, .al, .am, .an, .ao, .ap, .aq, .ar, .as, .at, .au, .av, .aw, .ax, .ay, .az, .ba, .bb {
        stroke-width: 0px;
      }

      .y, .bc, .ah, .ap, .aq, .bd, .ba {
        mix-blend-mode: soft-light;
      }

      .z {
        fill: url(#c);
      }

      .aa {
        fill: #2563eb;
      }

      .ab {
        fill: #10b981;
      }

      .ac {
        fill: url(#e);
      }

      .ad {
        fill: url(#g);
      }

      .ae {
        fill: url(#i);
      }

      .be {
        isolation: isolate;
      }

      .af {
        fill: url(#b);
      }

      .bc, .aj, .bd {
        fill: none;
      }

      .bc, .bd {
        stroke: #000;
        stroke-miterlimit: 10;
        stroke-width: 1.81px;
      }

      .ag {
        fill: url(#q);
      }

      .ah {
        fill: url(#p);
      }

      .bf {
        clip-path: url(#v);
      }

      .ai {
        fill: url(#t);
      }

      .ak {
        fill: url(#u);
      }

      .al {
        fill: #d4d4d4;
      }

      .am {
        fill: url(#n);
      }

      .bg {
        opacity: .48;
      }

      .an {
        fill: #1d4ed8;
      }

      .bh {
        clip-path: url(#l);
      }

      .ao {
        fill: url(#h);
      }

      .ap {
        fill: #fff;
        opacity: .33;
      }

      .aq {
        fill: url(#x);
      }

      .ar {
        fill: url(#d);
      }

      .bd {
        opacity: .09;
      }

      .as {
        fill: #a3a3a3;
      }

      .at {
        fill: url(#f);
      }

      .bi {
        opacity: .21;
      }

      .au {
        fill: url(#m);
      }

      .av {
        fill: #b9b9b9;
      }

      .aw {
        fill: #76c9f0;
      }

      .ax {
        fill: url(#r);
      }

      .bj {
        clip-path: url(#s);
      }

      .ay {
        fill: #1e293b;
      }

      .az {
        fill: url(#k);
      }

      .ba {
        fill: url(#j);
      }

      .bb {
        fill: url(#o);
      }
    </style>
    <linearGradient id="b" data-name="Degradado sin nombre 129" x1="937.37" y1="-929.11" x2="1036.01" y2="-1022.02" gradientTransform="translate(1002.76 1897.09) rotate(-45)" gradientUnits="userSpaceOnUse">
      <stop offset="0" stop-color="#ff8533"/>
      <stop offset="1" stop-color="#ffd052"/>
    </linearGradient>
    <linearGradient id="c" data-name="Degradado sin nombre 144" x1="982.45" y1="-971.21" x2="1043.25" y2="-1031.03" gradientTransform="translate(1002.76 1897.09) rotate(-45)" gradientUnits="userSpaceOnUse">
      <stop offset="0" stop-color="#ffd052"/>
      <stop offset="1" stop-color="#ffe9ae"/>
    </linearGradient>
    <linearGradient id="d" data-name="Degradado sin nombre 106" x1="1095.99" y1="-1001.32" x2="1039.07" y2="-1094.36" gradientTransform="translate(1002.76 1897.09) rotate(-45)" gradientUnits="userSpaceOnUse">
      <stop offset="0" stop-color="#767b7f"/>
      <stop offset="1" stop-color="#a3a3a3"/>
    </linearGradient>
    <linearGradient id="e" data-name="Degradado sin nombre 92" x1="1011.09" y1="-1101.52" x2="1102.3" y2="-997.28" gradientTransform="translate(1002.76 1897.09) rotate(-45)" gradientUnits="userSpaceOnUse">
      <stop offset="0" stop-color="#f02e54"/>
      <stop offset="1" stop-color="#8f1931"/>
    </linearGradient>
    <linearGradient id="f" data-name="Degradado sin nombre 92" x1="1107.64" y1="-972.14" x2="1078.32" y2="-1119.86" xlink:href="#e"/>
    <linearGradient id="g" data-name="Degradado sin nombre 36" x1="1134.38" y1="-1192.3" x2="1201.86" y2="-1032.92" gradientTransform="translate(1002.76 1897.09) rotate(-45)" gradientUnits="userSpaceOnUse">
      <stop offset="0" stop-color="#eef4fa"/>
      <stop offset="1" stop-color="#cddeed"/>
    </linearGradient>
    <linearGradient id="h" data-name="Degradado sin nombre 36" x1="1143.6" y1="-1174.63" x2="1200.84" y2="-1039.42" xlink:href="#g"/>
    <linearGradient id="i" data-name="Degradado sin nombre 13" x1="1035.94" y1="-1109.41" x2="1096.84" y2="-1034.26" gradientTransform="translate(1002.76 1897.09) rotate(-45)" gradientUnits="userSpaceOnUse">
      <stop offset="0" stop-color="#c7c7c7"/>
      <stop offset="1" stop-color="#a3a3a3"/>
    </linearGradient>
    <linearGradient id="j" data-name="Degradado sin nombre 126" x1="1080.24" y1="-1072.6" x2="1092.71" y2="-1034.17" gradientTransform="translate(1002.76 1897.09) rotate(-45)" gradientUnits="userSpaceOnUse">
      <stop offset="0" stop-color="#1d262d"/>
      <stop offset="1" stop-color="#1d262d" stop-opacity="0"/>
    </linearGradient>
    <linearGradient id="k" data-name="Degradado sin nombre 92" x1="1214.98" y1="-1234" x2="1340.92" y2="-1133" xlink:href="#e"/>
    <clipPath id="l">
      <path class="aj" d="M1044.91,161.13c-23.73-32.39-35.85-33.47-35.85-33.47,0,0-12.11,1.21-35.64,33.85-24.86,34.48-25.44,71.55-25.59,97.05-.18,33,10.21,98.11,29.41,143.17l32.66-.34h32.67c18.92-45.27,28.91-110.49,28.53-143.49-.3-25.5-1.12-62.56-26.18-96.77Z"/>
    </clipPath>
    <linearGradient id="m" data-name="Degradado sin nombre 159" x1="1375.79" y1="-1015.09" x2="1142.64" y2="-1256.84" gradientTransform="translate(985.24 1896.92) rotate(-44.41)" gradientUnits="userSpaceOnUse">
      <stop offset="0" stop-color="#8f1931"/>
      <stop offset="1" stop-color="#f02e54"/>
    </linearGradient>
    <linearGradient id="n" data-name="Degradado sin nombre 159" x1="1368.7" y1="-1008.26" x2="1135.56" y2="-1250" gradientTransform="translate(985.34 1896.91) rotate(-44.41)" xlink:href="#m"/>
    <linearGradient id="o" data-name="Degradado sin nombre 92" x1="1034.31" y1="-1071.24" x2="1105.72" y2="-969.11" xlink:href="#e"/>
    <linearGradient id="p" data-name="Degradado sin nombre 153" x1="1158.22" y1="-1123.64" x2="1184" y2="-1069.66" gradientTransform="translate(1002.76 1897.09) rotate(-45)" gradientUnits="userSpaceOnUse">
      <stop offset="0" stop-color="#1d262d"/>
      <stop offset=".68" stop-color="#1d262d" stop-opacity=".32"/>
      <stop offset="1" stop-color="#1d262d" stop-opacity="0"/>
    </linearGradient>
    <linearGradient id="q" data-name="Degradado sin nombre 13" x1="1131.76" y1="-1184.78" x2="1182.4" y2="-1066.31" xlink:href="#i"/>
    <linearGradient id="r" data-name="Degradado sin nombre 6" x1="1125.73" y1="-1177.91" x2="1185.58" y2="-1086.44" gradientTransform="translate(1002.76 1897.09) rotate(-45)" gradientUnits="userSpaceOnUse">
      <stop offset="0" stop-color="#ade5ff"/>
      <stop offset="1" stop-color="#76c9f0"/>
    </linearGradient>
    <clipPath id="s">
      <path class="aj" d="M1009.4,307.56c-16.72.07-30.37-13.47-30.44-30.19-.07-16.72,13.47-30.37,30.19-30.44,16.72-.07,30.37,13.47,30.44,30.19.07,16.72-13.47,30.37-30.19,30.44Z"/>
    </clipPath>
    <linearGradient id="t" data-name="Degradado sin nombre 158" x1="1179.25" y1="-1166" x2="1115.27" y2="-1123.64" gradientTransform="translate(-507 860.59) rotate(23.83)" gradientUnits="userSpaceOnUse">
      <stop offset="0" stop-color="#f9fbfc"/>
      <stop offset="1" stop-color="#f9fbfc" stop-opacity="0"/>
    </linearGradient>
    <linearGradient id="u" data-name="Degradado sin nombre 158" x1="1187.45" y1="-1153.62" x2="1123.47" y2="-1111.26" gradientTransform="translate(-492.41 851.53) rotate(23.83)" xlink:href="#t"/>
    <clipPath id="v">
      <path class="aj" d="M1044.91,161.13c-23.73-32.39-35.85-33.47-35.85-33.47,0,0-12.11,1.21-35.64,33.85-24.86,34.48-25.44,71.55-25.59,97.05-.15,26.33,6.44,73.1,18.86,113.82,3.15,10.32,6.67,20.25,10.55,29.36l32.66-.34h32.67c18.92-45.27,28.91-110.49,28.53-143.49-.3-25.5-1.12-62.56-26.18-96.77Z"/>
    </clipPath>
    <linearGradient id="w" data-name="Degradado sin nombre 126" x1="1302.91" y1="-1054.83" x2="1164.92" y2="-1141" xlink:href="#j"/>
    <linearGradient id="x" data-name="Degradado sin nombre 126" x1="1105.48" y1="-1060.1" x2="1119.76" y2="-1028.1" xlink:href="#j"/>
  </defs>
  <g class="be">
    <g id="a" data-name="Layer 1">
      <g class="bi">
        <path class="aa" d="M567.32,545.56h-32.73v27.48c0,7.48,5.46,11.22,16.36,11.22,14.27,0,26.17,3.81,35.71,11.42,10.15,8.1,15.23,18.8,15.23,32.11v35.92c0,6.59-2.54,12.21-7.62,16.88-5.01,4.6-10.98,6.89-17.91,6.89h-50.84c-6.93,0-12.9-2.3-17.91-6.89-5.08-4.66-7.62-10.29-7.62-16.88v-35.09h34.58v26.65h32.73v-27.48c0-7.48-5.46-11.22-16.36-11.22-14.27,0-26.17-3.81-35.71-11.42-10.16-8.09-15.23-18.8-15.23-32.11v-35.92c0-6.59,2.54-12.21,7.62-16.88,5.01-4.6,10.98-6.89,17.91-6.89h50.84c6.93,0,12.9,2.3,17.91,6.89,5.08,4.67,7.62,10.29,7.62,16.88v34.99h-34.58v-26.55Z"/>
        <path class="ab" d="M659.01,655.27h57.63v32.21h-92.21v-174.12h92.21v32.21h-57.63v38.69h47.96v32.31h-47.96v38.69Z"/>
        <path class="ay" d="M809.06,513.35c6.93,0,12.9,2.3,17.91,6.89,5.08,4.67,7.62,10.29,7.62,16.88v126.58c0,6.59-2.54,12.21-7.62,16.88-5.01,4.6-10.98,6.89-17.91,6.89h-50.84c-6.93,0-12.9-2.3-17.91-6.89-5.08-4.66-7.62-10.29-7.62-16.88v-126.58c0-6.59,2.54-12.21,7.62-16.88,5.01-4.6,10.98-6.89,17.91-6.89h50.84ZM767.27,545.56v109.7h32.73v-109.7h-32.73Z"/>
        <path class="an" d="M887.27,687.48h-18.16c-2.13,0-3.2-1.07-3.2-3.2v-70.63h-8.8c-2.13,0-3.2-1.07-3.2-3.2v-16.32c0-2.13,1.07-3.2,3.2-3.2h8.64v-17.28c0-1.97.96-3.15,2.88-3.52l18.4-3.52c.21-.05.48-.08.8-.08.85,0,1.52.27,2,.8.48.53.72,1.25.72,2.16v21.44h15.92c2.13,0,3.2,1.07,3.2,3.2v16.32c0,2.13-1.07,3.2-3.2,3.2h-16v70.63c0,2.13-1.07,3.2-3.2,3.2Z"/>
        <path class="an" d="M989.49,594.86c1.12.69,1.68,1.57,1.68,2.64,0,.53-.16,1.12-.48,1.76l-8,15.04c-.64,1.17-1.47,1.76-2.48,1.76-.64,0-1.25-.19-1.84-.56-4.05-2.19-7.89-3.28-11.52-3.28s-6.88,1.03-10.08,3.08c-3.2,2.05-5.79,5.07-7.76,9.04-1.97,3.97-2.96,8.71-2.96,14.2v45.75c0,2.13-1.07,3.2-3.2,3.2h-18.16c-2.13,0-3.2-1.07-3.2-3.2v-90.14c0-2.13,1.07-3.2,3.2-3.2h14c1.81,0,3.01.85,3.6,2.56l3.12,9.12c3.04-4.27,6.59-7.55,10.64-9.84,4.05-2.29,8.8-3.44,14.24-3.44,6.35,0,12.74,1.84,19.2,5.52Z"/>
        <path class="an" d="M1072.83,590.94h13.68c2.13,0,3.2,1.07,3.2,3.2v90.14c0,2.13-1.07,3.2-3.2,3.2h-14.16c-1.76,0-2.96-.88-3.6-2.64l-1.6-6.4c-7.04,7.41-15.92,11.12-26.63,11.12-9.01,0-17.29-2.24-24.84-6.72-7.55-4.48-13.51-10.57-17.88-18.28-4.37-7.7-6.56-16.12-6.56-25.24s2.2-17.5,6.6-25.16c4.4-7.65,10.37-13.7,17.92-18.16,7.54-4.45,15.8-6.68,24.76-6.68,10.88,0,19.81,3.71,26.79,11.12l1.92-6.96c.59-1.71,1.79-2.56,3.6-2.56ZM1054.08,662.64c3.92-2.27,7-5.4,9.24-9.4,2.24-4,3.36-8.53,3.36-13.6s-1.12-9.64-3.36-13.72c-2.24-4.08-5.31-7.29-9.2-9.64-3.89-2.35-8.24-3.52-13.04-3.52s-9.12,1.17-12.96,3.52c-3.84,2.35-6.85,5.56-9.04,9.64-2.19,4.08-3.28,8.65-3.28,13.72s1.08,9.61,3.24,13.64c2.16,4.03,5.15,7.16,8.96,9.4,3.81,2.24,8.12,3.36,12.92,3.36s9.24-1.13,13.16-3.4Z"/>
        <path class="an" d="M1131.1,683.12c-7.6-4.51-13.55-10.6-17.84-18.28-4.29-7.68-6.44-16.05-6.44-25.12s2.15-17.61,6.44-25.32c4.29-7.7,10.24-13.81,17.84-18.32,7.6-4.51,16.17-6.76,25.71-6.76,6.29,0,12.2.95,17.72,2.84,5.52,1.89,10.46,4.57,14.84,8.04.91.75,1.36,1.57,1.36,2.48,0,.59-.24,1.25-.72,2l-8.88,12.56c-.64.96-1.41,1.44-2.32,1.44-.69,0-1.41-.27-2.16-.8-2.83-2.03-5.76-3.57-8.8-4.64-3.04-1.07-6.43-1.6-10.16-1.6-4.75,0-9.15,1.21-13.2,3.64-4.05,2.43-7.28,5.79-9.68,10.08-2.4,4.29-3.6,9.08-3.6,14.36s1.21,9.95,3.64,14.16c2.43,4.21,5.68,7.53,9.76,9.96,4.08,2.43,8.46,3.64,13.16,3.64,3.73,0,7.1-.53,10.12-1.6,3.01-1.07,5.93-2.61,8.76-4.64.8-.53,1.49-.8,2.08-.8.91,0,1.71.51,2.4,1.52l8.88,12.56c.53.75.8,1.47.8,2.16s-.32,1.33-.96,1.92c-4.43,3.57-9.45,6.35-15.08,8.32-5.63,1.97-11.67,2.96-18.12,2.96-9.44,0-17.96-2.25-25.56-6.76Z"/>
        <path class="an" d="M1231.6,687.48h-18.16c-2.13,0-3.2-1.07-3.2-3.2v-70.63h-8.8c-2.13,0-3.2-1.07-3.2-3.2v-16.32c0-2.13,1.07-3.2,3.2-3.2h8.64v-17.28c0-1.97.96-3.15,2.88-3.52l18.4-3.52c.21-.05.48-.08.8-.08.85,0,1.52.27,2,.8.48.53.72,1.25.72,2.16v21.44h15.92c2.13,0,3.2,1.07,3.2,3.2v16.32c0,2.13-1.07,3.2-3.2,3.2h-16v70.63c0,2.13-1.07,3.2-3.2,3.2Z"/>
        <path class="an" d="M1265.84,576.14v-16.64c0-2.13,1.07-3.2,3.2-3.2h18.48c2.13,0,3.2,1.07,3.2,3.2v16.64c0,2.13-1.07,3.2-3.2,3.2h-18.48c-2.13,0-3.2-1.07-3.2-3.2ZM1287.35,687.48h-18.16c-2.13,0-3.2-1.07-3.2-3.2v-90.14c0-2.13,1.07-3.2,3.2-3.2h18.16c2.13,0,3.2,1.07,3.2,3.2v90.14c0,2.13-1.07,3.2-3.2,3.2Z"/>
        <path class="an" d="M1333.07,683.16c-7.76-4.48-13.9-10.54-18.44-18.2-4.53-7.65-6.8-16.04-6.8-25.16s2.28-17.7,6.84-25.43c4.56-7.73,10.73-13.84,18.52-18.32,7.79-4.48,16.29-6.72,25.52-6.72s17.82,2.24,25.64,6.72c7.81,4.48,14,10.59,18.56,18.32,4.56,7.73,6.84,16.21,6.84,25.43s-2.29,17.5-6.88,25.16c-4.59,7.65-10.8,13.72-18.64,18.2s-16.4,6.72-25.68,6.72-17.72-2.24-25.48-6.72ZM1372.02,662.84c4.03-2.35,7.23-5.55,9.6-9.6,2.37-4.05,3.56-8.58,3.56-13.6s-1.19-9.57-3.56-13.68c-2.37-4.11-5.57-7.33-9.6-9.68-4.03-2.35-8.44-3.52-13.24-3.52s-9.21,1.17-13.24,3.52c-4.03,2.35-7.23,5.57-9.6,9.68-2.37,4.11-3.56,8.67-3.56,13.68s1.19,9.54,3.56,13.6c2.37,4.05,5.57,7.25,9.6,9.6,4.03,2.35,8.44,3.52,13.24,3.52s9.21-1.17,13.24-3.52Z"/>
        <path class="an" d="M1501.19,594.54c5.89,3.52,10.45,8.51,13.68,14.96,3.23,6.45,4.84,13.94,4.84,22.48v52.31c0,2.13-1.07,3.2-3.2,3.2h-18.24c-2.13,0-3.2-1.07-3.2-3.2v-49.59c0-4.59-.8-8.6-2.4-12.04-1.6-3.44-3.91-6.09-6.92-7.96-3.01-1.87-6.55-2.8-10.6-2.8-4.27,0-8.21,1-11.84,3-3.63,2-6.52,4.68-8.68,8.04-2.16,3.36-3.24,6.93-3.24,10.72v50.63c0,2.13-1.07,3.2-3.2,3.2h-18.16c-2.13,0-3.2-1.07-3.2-3.2v-90.14c0-2.13,1.07-3.2,3.2-3.2h14c1.81,0,3.01.85,3.6,2.56l2.8,8.64c3.68-3.73,8.32-6.81,13.92-9.24,5.6-2.43,11.01-3.64,16.24-3.64,7.84,0,14.7,1.76,20.6,5.28Z"/>
      </g>
      <g>
        <path class="af" d="M1010.66,438.3s-56.5,25.67-25.31,74.45l6.95-10.41s1.53,21.87,20.11,47.66c17.77-26.36,18.61-48.26,18.61-48.26l7.27,10.19c29.65-49.72-27.62-73.62-27.62-73.62Z"/>
        <path class="z" d="M1010.66,438.3s-35.24,16.01-15.79,46.44l4.34-6.49s.95,13.64,12.54,29.73c11.08-16.44,11.61-30.11,11.61-30.11l4.54,6.36c18.5-31.02-17.23-45.92-17.23-45.92Z"/>
        <polygon class="ar" points="1037.66 407.22 981.88 407.52 981.84 392.02 1037.61 391.72 1037.66 407.22"/>
        <path class="ac" d="M958.57,341.65s-27.96,24.12-27.9,45.55c.07,23.12,4.71,46.86,17.27,74.85,6.71,14.93,6.39-7.11,7.01-20.91,1.08-24.15,7.54-30.13,22.3-39.39,0,0-6.78-19.73-18.68-60.09Z"/>
        <path class="ap" d="M958.57,341.65s-27.96,24.12-27.9,45.55c.07,23.12,4.71,46.86,17.27,74.85,1.26,2.8,2.27,4.3,3.08,4.8,0,0-14.6-36.77-15.03-61.48-.43-24.71,2.97-37.51,22.58-63.71"/>
        <path class="at" d="M1060.88,341.1s28.11,23.82,28.18,45.25c.08,23.12-4.42,46.91-16.81,75.03-6.61,15.01-6.43-7.05-7.13-20.83-1.23-24.14-7.72-30.05-22.54-39.16,0,0,6.66-19.8,18.3-60.29Z"/>
        <path class="ad" d="M1044.91,161.13c-23.73-32.39-35.85-33.47-35.85-33.47,0,0-12.11,1.21-35.64,33.85-24.86,34.48-25.44,71.55-25.59,97.05-.18,33,10.21,98.11,29.41,143.17l32.66-.34h32.67c18.92-45.27,28.91-110.49,28.53-143.49-.3-25.5-1.12-62.56-26.18-96.77Z"/>
        <path class="ao" d="M985.53,401.65l24.38-.26h32.67c18.92-45.27,28.91-110.49,28.53-143.49-.3-25.5-1.12-62.56-26.18-96.77-23.73-32.39-35.85-33.47-35.85-33.47"/>
        <line class="bd" x1="981.87" y1="401.69" x2="1037.77" y2="401.39"/>
        <path class="ae" d="M977.24,401.74l32.66-.34h32.67c3.82-9.15,7.28-19.12,10.36-29.47l-86.23.46c3.15,10.32,6.66,20.25,10.54,29.36Z"/>
        <polygon class="ba" points="1011.51 347.96 1042.57 401.39 1037.29 402.48 1037.66 407.22 1016 407.34 1011.51 347.96"/>
        <line class="bc" x1="956.72" y1="193.56" x2="1061.82" y2="193"/>
        <path class="az" d="M1009.06,127.66s-12.11,1.21-35.64,33.85c-7.63,10.58-12.96,21.4-16.7,32.05l105.1-.56c-3.81-10.62-9.21-21.38-16.9-31.87-23.73-32.39-35.85-33.47-35.85-33.47Z"/>
        <g class="bh">
          <rect class="au" x="947.38" y="199.29" width="125.91" height="5.42" transform="translate(-2.03 10.46) rotate(-.59)"/>
          <rect class="am" x="948.54" y="210.06" width="125.91" height="3.62" transform="translate(-2.14 10.47) rotate(-.59)"/>
        </g>
        <line class="bd" x1="966.69" y1="372.38" x2="1052.93" y2="371.92"/>
        <path class="bb" d="M1009.74,346.64s-6.17-1.33-6.02,45.6c.14,46.93,2.74,89.42,6.44,89.4,3.7-.02,6.03-42.54,5.89-89.46-.14-46.93-6.3-45.53-6.3-45.53Z"/>
        <path class="ap" d="M1009.74,346.64s-6.17-1.33-6.02,45.6c.14,46.93,2.74,89.42,6.44,89.4,0,0-2.86-15.94-4-52.18-1.14-36.25-1.44-76.81,3.58-82.81Z"/>
        <g>
          <path class="ah" d="M1051.1,277.29c-.09-22.74-18.6-41.09-41.34-40.99-22.73.09-41.09,18.6-40.99,41.34.09,22.73,18.6,41.09,41.34,40.99,22.73-.09,41.09-18.6,40.99-41.34Z"/>
          <path class="al" d="M1049.77,276.64c-.09-22.61-18.5-40.86-41.11-40.77-22.61.09-40.86,18.5-40.77,41.11.09,22.61,18.5,40.86,41.11,40.77,22.61-.09,40.86-18.5,40.77-41.11Z"/>
          <path class="ag" d="M1049.98,276.64c-.09-22.33-18.27-40.36-40.6-40.27-22.33.09-40.36,18.27-40.27,40.6.09,22.33,18.27,40.36,40.6,40.27,22.33-.09,40.36-18.27,40.27-40.6Z"/>
          <path class="aw" d="M1008.81,308.57c-17.42.07-31.66-14.04-31.73-31.47-.07-17.42,14.04-31.66,31.47-31.73,17.42-.07,31.66,14.04,31.73,31.47.07,17.42-14.04,31.66-31.47,31.73Z"/>
          <path class="ax" d="M1009.4,307.56c-16.72.07-30.37-13.47-30.44-30.19-.07-16.72,13.47-30.37,30.19-30.44,16.72-.07,30.37,13.47,30.44,30.19.07,16.72-13.47,30.37-30.19,30.44Z"/>
          <g class="bj">
            <rect class="ai" x="967.63" y="270.98" width="73.46" height="11.92" transform="translate(383.37 1113.49) rotate(-68.83)"/>
            <rect class="ak" x="981.54" y="280.06" width="73.46" height="6" transform="translate(386.55 1130.37) rotate(-68.83)"/>
          </g>
          <g>
            <g>
              <path class="as" d="M974.48,278.96c-.52-.8-1.59-1.02-2.39-.5-.8.52-1.02,1.59-.5,2.39.52.8,1.59,1.02,2.39.5.8-.52,1.02-1.59.5-2.39Z"/>
              <path class="as" d="M976.92,289.89c-.52-.8-1.59-1.02-2.39-.5-.8.52-1.02,1.59-.5,2.39.52.8,1.59,1.02,2.39.5.8-.52,1.02-1.59.5-2.39Z"/>
              <path class="as" d="M974.68,269.53c-.52-.8-1.59-1.02-2.39-.5-.8.52-1.02,1.59-.5,2.39.52.8,1.59,1.02,2.39.5.8-.52,1.02-1.59.5-2.39Z"/>
              <path class="as" d="M990.31,305.47c-.95-.09-1.79.61-1.88,1.56s.61,1.79,1.56,1.88c.95.09,1.79-.61,1.88-1.56.09-.95-.61-1.79-1.56-1.88Z"/>
              <path class="as" d="M1000.4,310.33c-.95-.09-1.79.61-1.88,1.56-.09.95.61,1.79,1.56,1.88.95.09,1.79-.61,1.88-1.56s-.61-1.79-1.56-1.88Z"/>
              <path class="as" d="M981.99,298.14c-.95-.09-1.79.61-1.88,1.56s.61,1.79,1.56,1.88,1.79-.61,1.88-1.56c.09-.95-.61-1.79-1.56-1.88Z"/>
              <path class="as" d="M1020.52,310.03c-.65.7-.62,1.79.08,2.44s1.79.62,2.44-.08c.65-.7.62-1.79-.08-2.44s-1.79-.62-2.44.08Z"/>
              <path class="as" d="M1030.55,305.07c-.65.7-.62,1.79.08,2.44s1.79.62,2.44-.08.62-1.79-.08-2.44c-.7-.65-1.79-.62-2.44.08Z"/>
              <path class="as" d="M1009.62,312.08c-.65.7-.62,1.79.08,2.44.7.65,1.79.62,2.44-.08s.62-1.79-.08-2.44c-.7-.65-1.79-.62-2.44.08Z"/>
              <path class="as" d="M1042.69,288.71c.14.94,1.02,1.59,1.96,1.45.94-.14,1.59-1.02,1.45-1.96-.14-.94-1.02-1.59-1.96-1.45-.94.14-1.59,1.02-1.45,1.96Z"/>
              <path class="as" d="M1044.7,278.2c.14.94,1.02,1.59,1.96,1.45.94-.14,1.59-1.02,1.45-1.96-.14-.94-1.02-1.59-1.96-1.45s-1.59,1.02-1.45,1.96Z"/>
              <path class="as" d="M1037.37,298.18c.14.94,1.02,1.59,1.96,1.45.94-.14,1.59-1.02,1.45-1.96-.14-.94-1.02-1.59-1.96-1.45-.94.14-1.59,1.02-1.45,1.96Z"/>
              <path class="as" d="M1038.98,259.49c.82.49,1.88.23,2.37-.59.49-.82.23-1.88-.59-2.37-.82-.49-1.88-.23-2.37.59-.49.82-.23,1.88.59,2.37Z"/>
              <path class="as" d="M1032.55,251.41c.82.49,1.88.23,2.37-.59.49-.82.23-1.88-.59-2.37s-1.88-.23-2.37.59-.23,1.88.59,2.37Z"/>
              <path class="as" d="M1043.75,269.22c.82.49,1.88.23,2.37-.59.49-.82.23-1.88-.59-2.37-.82-.49-1.88-.23-2.37.59-.49.82-.23,1.88.59,2.37Z"/>
              <path class="as" d="M1014.97,242.25c.89-.34,1.34-1.34,1-2.23s-1.34-1.34-2.23-1c-.89.34-1.34,1.34-1,2.23.34.89,1.34,1.34,2.23,1Z"/>
              <path class="as" d="M1003.92,242.28c.89-.34,1.34-1.34,1-2.23s-1.34-1.34-2.23-1c-.89.34-1.34,1.34-1,2.23.34.89,1.34,1.34,2.23,1Z"/>
              <path class="as" d="M1025.02,245.81c.89-.34,1.34-1.34,1-2.23-.34-.89-1.34-1.34-2.23-1-.89.34-1.34,1.34-1,2.23.34.89,1.34,1.34,2.23,1Z"/>
              <path class="as" d="M985.08,252.05c.29-.91-.22-1.88-1.13-2.16-.91-.29-1.88.22-2.16,1.13-.29.91.22,1.88,1.13,2.16.91.29,1.88-.22,2.16-1.13Z"/>
              <path class="as" d="M978.83,260.95c.29-.91-.22-1.88-1.13-2.16-.91-.29-1.88.22-2.16,1.13-.29.91.22,1.88,1.13,2.16.91.29,1.88-.22,2.16-1.13Z"/>
              <path class="as" d="M994.1,245.27c.29-.91-.22-1.88-1.13-2.16-.91-.29-1.88.22-2.16,1.13-.29.91.22,1.88,1.13,2.16.91.29,1.88-.22,2.16-1.13Z"/>
            </g>
            <g>
              <path class="al" d="M973.97,278.96c-.52-.8-1.59-1.02-2.39-.5s-1.02,1.59-.5,2.39c.52.8,1.59,1.02,2.39.5.8-.52,1.02-1.59.5-2.39Z"/>
              <path class="al" d="M976.41,289.89c-.52-.8-1.59-1.02-2.39-.5-.8.52-1.02,1.59-.5,2.39.52.8,1.59,1.02,2.39.5.8-.52,1.02-1.59.5-2.39Z"/>
              <path class="al" d="M974.16,269.53c-.52-.8-1.59-1.02-2.39-.5-.8.52-1.02,1.59-.5,2.39.52.8,1.59,1.02,2.39.5.8-.52,1.02-1.59.5-2.39Z"/>
              <path class="al" d="M989.8,305.47c-.95-.09-1.79.61-1.88,1.56s.61,1.79,1.56,1.88c.95.09,1.79-.61,1.88-1.56s-.61-1.79-1.56-1.88Z"/>
              <path class="al" d="M999.89,310.33c-.95-.09-1.79.61-1.88,1.56s.61,1.79,1.56,1.88c.95.09,1.79-.61,1.88-1.56s-.61-1.79-1.56-1.88Z"/>
              <path class="al" d="M981.48,298.14c-.95-.09-1.79.61-1.88,1.56s.61,1.79,1.56,1.88,1.79-.61,1.88-1.56c.09-.95-.61-1.79-1.56-1.88Z"/>
              <path class="al" d="M1020,310.03c-.65.7-.62,1.79.08,2.44s1.79.62,2.44-.08c.65-.7.62-1.79-.08-2.44s-1.79-.62-2.44.08Z"/>
              <path class="al" d="M1030.04,305.07c-.65.7-.62,1.79.08,2.44s1.79.62,2.44-.08c.65-.7.62-1.79-.08-2.44s-1.79-.62-2.44.08Z"/>
              <path class="al" d="M1009.11,312.08c-.65.7-.62,1.79.08,2.44s1.79.62,2.44-.08.62-1.79-.08-2.44c-.7-.65-1.79-.62-2.44.08Z"/>
              <path class="al" d="M1042.17,288.71c.14.94,1.02,1.59,1.96,1.45.94-.14,1.59-1.02,1.45-1.96-.14-.94-1.02-1.59-1.96-1.45-.94.14-1.59,1.02-1.45,1.96Z"/>
              <path class="al" d="M1044.18,278.2c.14.94,1.02,1.59,1.96,1.45.94-.14,1.59-1.02,1.45-1.96-.14-.94-1.02-1.59-1.96-1.45s-1.59,1.02-1.45,1.96Z"/>
              <path class="al" d="M1036.85,298.18c.14.94,1.02,1.59,1.96,1.45.94-.14,1.59-1.02,1.45-1.96-.14-.94-1.02-1.59-1.96-1.45-.94.14-1.59,1.02-1.45,1.96Z"/>
              <path class="al" d="M1038.47,259.49c.82.49,1.88.23,2.37-.59.49-.82.23-1.88-.59-2.37-.82-.49-1.88-.23-2.37.59-.49.82-.23,1.88.59,2.37Z"/>
              <path class="al" d="M1032.04,251.41c.82.49,1.88.23,2.37-.59.49-.82.23-1.88-.59-2.37s-1.88-.23-2.37.59-.23,1.88.59,2.37Z"/>
              <path class="al" d="M1043.23,269.22c.82.49,1.88.23,2.37-.59.49-.82.23-1.88-.59-2.37-.82-.49-1.88-.23-2.37.59-.49.82-.23,1.88.59,2.37Z"/>
              <path class="al" d="M1014.46,242.25c.89-.34,1.34-1.34,1-2.23-.34-.89-1.34-1.34-2.23-1-.89.34-1.34,1.34-1,2.23.34.89,1.34,1.34,2.23,1Z"/>
              <path class="al" d="M1003.41,242.28c.89-.34,1.34-1.34,1-2.23-.34-.89-1.34-1.34-2.23-1-.89.34-1.34,1.34-1,2.23.34.89,1.34,1.34,2.23,1Z"/>
              <path class="al" d="M1024.51,245.81c.89-.34,1.34-1.34,1-2.23-.34-.89-1.34-1.34-2.23-1-.89.34-1.34,1.34-1,2.23.34.89,1.34,1.34,2.23,1Z"/>
              <path class="al" d="M984.57,252.05c.29-.91-.22-1.88-1.13-2.16-.91-.29-1.88.22-2.16,1.13-.29.91.22,1.88,1.13,2.16.91.29,1.88-.22,2.16-1.13Z"/>
              <path class="al" d="M978.32,260.95c.29-.91-.22-1.88-1.13-2.16-.91-.29-1.88.22-2.16,1.13-.29.91.22,1.88,1.13,2.16.91.29,1.88-.22,2.16-1.13Z"/>
              <path class="al" d="M993.59,245.27c.29-.91-.22-1.88-1.13-2.16-.91-.29-1.88.22-2.16,1.13-.29.91.22,1.88,1.13,2.16.91.29,1.88-.22,2.16-1.13Z"/>
            </g>
            <g>
              <rect class="av" x="970.91" y="279.73" width="3.22" height=".35" transform="translate(692.62 1252.43) rotate(-90)"/>
              <rect class="av" x="973.35" y="290.66" width="3.22" height=".35" transform="translate(684.13 1265.8) rotate(-90)"/>
              <rect class="av" x="971.11" y="270.31" width="3.22" height=".35" transform="translate(702.24 1243.2) rotate(-90)"/>
              <rect class="av" x="988.03" y="307.02" width="3.22" height=".35" transform="translate(682.45 1296.83) rotate(-90)"/>
              <rect class="av" x="998.12" y="311.88" width="3.22" height=".35" transform="translate(687.66 1311.78) rotate(-90)"/>
              <rect class="av" x="979.71" y="299.69" width="3.22" height=".35" transform="translate(681.46 1281.18) rotate(-90)"/>
              <rect class="av" x="1019.65" y="311.04" width="3.22" height=".35" transform="translate(710.05 1332.47) rotate(-90)"/>
              <rect class="av" x="1029.69" y="306.07" width="3.22" height=".35" transform="translate(725.05 1337.55) rotate(-90)"/>
              <rect class="av" x="1008.75" y="313.09" width="3.22" height=".35" transform="translate(697.1 1323.63) rotate(-90)"/>
              <rect class="av" x="1042.27" y="288.28" width="3.22" height=".35" transform="translate(755.43 1332.33) rotate(-90)"/>
              <rect class="av" x="1044.28" y="277.77" width="3.22" height=".35" transform="translate(767.93 1323.83) rotate(-90)"/>
              <rect class="av" x="1036.95" y="297.76" width="3.22" height=".35" transform="translate(740.63 1336.49) rotate(-90)"/>
              <rect class="av" x="1037.75" y="257.83" width="3.22" height=".35" transform="translate(781.36 1297.37) rotate(-90)"/>
              <rect class="av" x="1031.32" y="249.76" width="3.22" height=".35" transform="translate(783 1282.86) rotate(-90)"/>
              <rect class="av" x="1042.52" y="267.57" width="3.22" height=".35" transform="translate(776.4 1311.88) rotate(-90)"/>
              <rect class="av" x="1012.23" y="240.46" width="3.22" height=".35" transform="translate(773.21 1254.48) rotate(-90)"/>
              <rect class="av" x="1001.18" y="240.49" width="3.22" height=".35" transform="translate(762.12 1243.46) rotate(-90)"/>
              <rect class="av" x="1022.28" y="244.03" width="3.22" height=".35" transform="translate(779.69 1268.09) rotate(-90)"/>
              <rect class="av" x="981.31" y="251.36" width="3.22" height=".35" transform="translate(731.38 1234.46) rotate(-90)"/>
              <rect class="av" x="975.06" y="260.26" width="3.22" height=".35" transform="translate(716.24 1237.11) rotate(-90)"/>
              <rect class="av" x="990.33" y="244.58" width="3.22" height=".35" transform="translate(747.19 1236.69) rotate(-90)"/>
            </g>
          </g>
        </g>
        <path class="ap" d="M1009.06,127.66s-12.11,1.21-35.64,33.85c-24.86,34.48-25.44,71.55-25.59,97.05-.18,33,10.21,98.11,29.41,143.17h0s-65.54-184.93,31.82-274.08Z"/>
        <polygon class="ap" points="983.98 401.64 983.93 407.5 981.88 407.52 981.87 401.69 983.98 401.64"/>
        <g class="bg">
          <g class="bf">
            <path class="y" d="M1042.57,401.39s58.74-179.45-33.51-273.73l48.36-18.86,60.06,282.52s-30.84,14-74.91,10.07Z"/>
          </g>
        </g>
        <path class="aq" d="M1042.57,401.39l10.91,6.2s11.61-34.2,7.4-66.49h0s-10.15,40.56-18.3,60.29Z"/>
        <path class="ap" d="M1066.53,446.1c.14-13.94-3.88-23.24-4.69-24.98.16.37.45,1.14.8,2.52,1.31,4.45,2.12,9.91,2.47,16.9.46,8.91.54,21.26,2.33,24.84.4.74.85,1.02,1.34,1,0,0,0,0,0,0-.01-.02-2.42-4.82-2.27-20.28Z"/>
      </g>
    </g>
  </g>
</svg>