<?xml version="1.0" encoding="UTF-8"?>
<svg id="a" data-name="Layer 1" xmlns="http://www.w3.org/2000/svg" viewBox="0 0 1116.64 210.04">
  <defs>
    <style>
      .b {
        fill: #fff;
        stroke-width: 0px;
      }
    </style>
  </defs>
  <path class="b" d="M95.17,46.36h-34.25v28.76c0,7.83,5.71,11.74,17.12,11.74,14.93,0,27.39,3.99,37.37,11.96,10.62,8.47,15.94,19.67,15.94,33.6v37.59c0,6.89-2.66,12.78-7.97,17.66-5.24,4.81-11.49,7.22-18.74,7.22h-53.21c-7.25,0-13.5-2.4-18.74-7.22-5.31-4.88-7.97-10.77-7.97-17.66v-36.73h36.19v27.89h34.25v-28.76c0-7.83-5.71-11.74-17.12-11.74-14.94,0-27.39-3.98-37.37-11.95-10.63-8.47-15.94-19.67-15.94-33.6v-37.59c0-6.89,2.66-12.78,7.97-17.66,5.24-4.81,11.49-7.22,18.74-7.22h53.21c7.25,0,13.5,2.41,18.74,7.22,5.31,4.88,7.97,10.77,7.97,17.66v36.62h-36.19v-27.79Z"/>
  <path class="b" d="M191.13,161.17h60.31v33.71h-96.5V12.65h96.5v33.71h-60.31v40.5h50.19v33.82h-50.19v40.5Z"/>
  <path class="b" d="M348.16,12.65c7.25,0,13.5,2.41,18.74,7.22,5.31,4.88,7.97,10.77,7.97,17.66v132.47c0,6.89-2.66,12.78-7.97,17.66-5.24,4.81-11.49,7.22-18.74,7.22h-53.2c-7.25,0-13.5-2.4-18.74-7.22-5.31-4.88-7.97-10.77-7.97-17.66V37.53c0-6.89,2.66-12.78,7.97-17.66,5.24-4.81,11.49-7.22,18.74-7.22h53.2ZM304.44,46.36v114.81h34.25V46.36h-34.25Z"/>
  <path class="b" d="M430.02,194.88h-19c-2.23,0-3.35-1.12-3.35-3.35v-73.92h-9.21c-2.23,0-3.35-1.12-3.35-3.35v-17.08c0-2.23,1.12-3.35,3.35-3.35h9.04v-18.08c0-2.06,1-3.29,3.01-3.68l19.25-3.68c.22-.05.5-.08.84-.08.89,0,1.59.28,2.09.84.5.56.75,1.31.75,2.26v22.43h16.66c2.23,0,3.35,1.12,3.35,3.35v17.08c0,2.23-1.12,3.35-3.35,3.35h-16.74v73.92c0,2.23-1.12,3.35-3.35,3.35Z"/>
  <path class="b" d="M537,97.94c1.17.73,1.76,1.65,1.76,2.76,0,.56-.17,1.17-.5,1.84l-8.37,15.74c-.67,1.23-1.54,1.84-2.59,1.84-.67,0-1.31-.2-1.93-.59-4.24-2.29-8.26-3.43-12.05-3.43s-7.2,1.08-10.55,3.22c-3.35,2.15-6.06,5.3-8.12,9.46-2.07,4.16-3.1,9.11-3.1,14.86v47.88c0,2.23-1.12,3.35-3.35,3.35h-19c-2.23,0-3.35-1.12-3.35-3.35v-94.34c0-2.23,1.12-3.35,3.35-3.35h14.65c1.9,0,3.15.89,3.77,2.68l3.26,9.54c3.18-4.46,6.89-7.9,11.13-10.3,4.24-2.4,9.21-3.6,14.9-3.6,6.64,0,13.34,1.92,20.09,5.78Z"/>
  <path class="b" d="M624.22,93.84h14.31c2.23,0,3.35,1.12,3.35,3.35v94.34c0,2.23-1.12,3.35-3.35,3.35h-14.82c-1.84,0-3.1-.92-3.77-2.76l-1.67-6.7c-7.37,7.76-16.66,11.64-27.88,11.64-9.43,0-18.1-2.34-25.99-7.03-7.9-4.69-14.13-11.06-18.71-19.13-4.58-8.06-6.86-16.87-6.86-26.41s2.3-18.32,6.91-26.33c4.6-8.01,10.85-14.34,18.75-19,7.9-4.66,16.53-6.99,25.91-6.99,11.38,0,20.73,3.88,28.04,11.64l2.01-7.28c.61-1.79,1.87-2.68,3.77-2.68ZM604.59,168.89c4.1-2.37,7.32-5.65,9.67-9.84s3.52-8.93,3.52-14.23-1.17-10.09-3.52-14.36c-2.34-4.27-5.55-7.63-9.63-10.09-4.07-2.46-8.62-3.68-13.64-3.68s-9.54,1.23-13.56,3.68c-4.02,2.46-7.17,5.82-9.46,10.09-2.29,4.27-3.43,9.05-3.43,14.36s1.13,10.06,3.39,14.27c2.26,4.21,5.38,7.49,9.38,9.84,3.99,2.34,8.5,3.52,13.52,3.52s9.67-1.19,13.77-3.56Z"/>
  <path class="b" d="M685.2,190.32c-7.95-4.71-14.18-11.09-18.67-19.13s-6.74-16.8-6.74-26.29,2.25-18.43,6.74-26.49c4.49-8.06,10.71-14.45,18.67-19.17,7.95-4.71,16.92-7.07,26.91-7.07,6.58,0,12.77.99,18.54,2.97,5.78,1.98,10.95,4.79,15.53,8.41.95.78,1.42,1.65,1.42,2.6,0,.61-.25,1.31-.75,2.09l-9.29,13.14c-.67,1-1.48,1.51-2.43,1.51-.73,0-1.48-.28-2.26-.84-2.96-2.12-6.03-3.74-9.21-4.85s-6.73-1.67-10.63-1.67c-4.97,0-9.57,1.27-13.81,3.81-4.24,2.54-7.62,6.06-10.13,10.55-2.51,4.49-3.77,9.5-3.77,15.03s1.27,10.41,3.81,14.82c2.54,4.41,5.94,7.88,10.21,10.42,4.27,2.54,8.86,3.81,13.77,3.81,3.91,0,7.44-.56,10.59-1.67,3.15-1.12,6.21-2.73,9.17-4.86.84-.56,1.56-.84,2.18-.84.95,0,1.79.53,2.51,1.59l9.29,13.14c.56.78.84,1.54.84,2.26s-.33,1.4-1,2.01c-4.63,3.74-9.89,6.64-15.78,8.71-5.89,2.06-12.21,3.1-18.96,3.1-9.88,0-18.79-2.36-26.75-7.07Z"/>
  <path class="b" d="M790.38,194.88h-19c-2.23,0-3.35-1.12-3.35-3.35v-73.92h-9.21c-2.23,0-3.35-1.12-3.35-3.35v-17.08c0-2.23,1.12-3.35,3.35-3.35h9.04v-18.08c0-2.06,1-3.29,3.01-3.68l19.25-3.68c.22-.05.5-.08.84-.08.89,0,1.59.28,2.09.84.5.56.75,1.31.75,2.26v22.43h16.66c2.23,0,3.35,1.12,3.35,3.35v17.08c0,2.23-1.12,3.35-3.35,3.35h-16.74v73.92c0,2.23-1.12,3.35-3.35,3.35Z"/>
  <path class="b" d="M826.21,78.36v-17.41c0-2.23,1.12-3.35,3.35-3.35h19.34c2.23,0,3.35,1.12,3.35,3.35v17.41c0,2.23-1.12,3.35-3.35,3.35h-19.34c-2.23,0-3.35-1.12-3.35-3.35ZM848.73,194.88h-19c-2.23,0-3.35-1.12-3.35-3.35v-94.34c0-2.23,1.12-3.35,3.35-3.35h19c2.23,0,3.35,1.12,3.35,3.35v94.34c0,2.23-1.12,3.35-3.35,3.35Z"/>
  <path class="b" d="M896.57,190.36c-8.12-4.69-14.55-11.04-19.29-19.04-4.74-8.01-7.12-16.78-7.12-26.33s2.39-18.53,7.16-26.62,11.23-14.48,19.38-19.17c8.15-4.69,17.05-7.03,26.7-7.03s18.65,2.34,26.83,7.03c8.17,4.69,14.65,11.08,19.42,19.17s7.16,16.96,7.16,26.62-2.4,18.32-7.2,26.33c-4.8,8.01-11.3,14.36-19.5,19.04s-17.16,7.03-26.87,7.03-18.54-2.34-26.66-7.03ZM937.34,169.1c4.21-2.46,7.56-5.8,10.04-10.04,2.48-4.24,3.73-8.98,3.73-14.23s-1.24-10.02-3.73-14.31c-2.48-4.3-5.83-7.67-10.04-10.13-4.21-2.46-8.83-3.68-13.85-3.68s-9.64,1.23-13.85,3.68c-4.21,2.46-7.56,5.83-10.04,10.13-2.48,4.3-3.72,9.07-3.72,14.31s1.24,9.99,3.72,14.23c2.48,4.24,5.83,7.59,10.04,10.04,4.21,2.46,8.83,3.68,13.85,3.68s9.64-1.23,13.85-3.68Z"/>
  <path class="b" d="M1072.53,97.61c6.17,3.68,10.94,8.9,14.31,15.65,3.38,6.75,5.06,14.59,5.06,23.52v54.75c0,2.23-1.12,3.35-3.35,3.35h-19.09c-2.23,0-3.35-1.12-3.35-3.35v-51.9c0-4.8-.84-9-2.51-12.6-1.67-3.6-4.09-6.38-7.24-8.33-3.15-1.95-6.85-2.93-11.09-2.93-4.46,0-8.59,1.05-12.39,3.14-3.8,2.09-6.82,4.9-9.08,8.41-2.26,3.52-3.39,7.26-3.39,11.22v52.99c0,2.23-1.12,3.35-3.35,3.35h-19c-2.23,0-3.35-1.12-3.35-3.35v-94.34c0-2.23,1.12-3.35,3.35-3.35h14.65c1.9,0,3.15.89,3.77,2.68l2.93,9.04c3.85-3.91,8.71-7.13,14.57-9.67,5.86-2.54,11.52-3.81,16.99-3.81,8.2,0,15.39,1.84,21.56,5.52Z"/>
</svg>